<?xml version="1.0" encoding="utf-8"?>
<!-- Generator: Adobe Illustrator 17.1.0, SVG Export Plug-In . SVG Version: 6.00 Build 0)  -->
<!DOCTYPE svg PUBLIC "-//W3C//DTD SVG 1.1//EN" "http://www.w3.org/Graphics/SVG/1.1/DTD/svg11.dtd">
<svg version="1.1" id="Layer_1" xmlns="http://www.w3.org/2000/svg" xmlns:xlink="http://www.w3.org/1999/xlink" x="0px" y="0px"
	 viewBox="0 0 500 500" enable-background="new 0 0 500 500" xml:space="preserve">
<g id="FAQ">
	<g>
		<g>
			<path fill="#E74D41" d="M496.4,250c0,136.1-110.3,246.4-246.4,246.4C113.9,496.4,3.6,386.1,3.6,250C3.6,113.9,113.9,3.6,250,3.6
				C386.1,3.6,496.4,113.9,496.4,250z"/>
		</g>
		<g>
			<g>
				<polygon fill="#FFFFFF" points="109,258.3 374.4,160.9 177.9,284.3 				"/>
			</g>
			<g>
				<polygon fill="#AAACB2" points="177.9,284.3 189.2,355.7 374.4,160.9 				"/>
			</g>
			<g>
				<polygon fill="#C2C2C5" points="216.2,298 189.2,355.7 242.2,301.7 				"/>
			</g>
			<g>
				<polygon fill="#FFFFFF" points="374.4,160.9 216.2,298 289.6,325.7 				"/>
			</g>
		</g>
	</g>
	<g>
		<g>
			<polygon fill="#D34640" points="109,258.3 186,335.3 177.9,284.3 			"/>
		</g>
		<g>
			<path fill="#D34640" d="M379.3,165.7l-4.8-4.8l-10.2,19.9l-74.5,144.9l-51.1-19.3l-0.7-0.3L197.7,347l-8.5,8.7l130.7,130.7
				c4.4-1.3,8.7-2.7,13-4.2c86-30.7,149.9-107.8,161.6-201.2L379.3,165.7z"/>
		</g>
	</g>
</g>
</svg>
